<mxfile host="app.diagrams.net" agent="Mozilla/5.0 (Windows NT 10.0; Win64; x64) AppleWebKit/537.36 (KHTML, like Gecko) Chrome/131.0.0.0 Safari/537.36" version="24.9.1">
  <diagram name="Page-1" id="1WvIvKyNVKPTrPgf4PXy">
    <mxGraphModel dx="3006" dy="1683" grid="0" gridSize="10" guides="1" tooltips="1" connect="1" arrows="1" fold="1" page="0" pageScale="1" pageWidth="850" pageHeight="1100" math="0" shadow="0">
      <root>
        <mxCell id="0" />
        <mxCell id="1" parent="0" />
        <mxCell id="nebgcR1vfVfOd2gWNJgg-1" value="Data Collection" style="swimlane;" vertex="1" parent="1">
          <mxGeometry x="-24" y="-93" width="326" height="269" as="geometry" />
        </mxCell>
        <mxCell id="nebgcR1vfVfOd2gWNJgg-33" style="edgeStyle=none;curved=1;rounded=0;orthogonalLoop=1;jettySize=auto;html=1;fontSize=12;startSize=8;endSize=8;" edge="1" parent="nebgcR1vfVfOd2gWNJgg-1" source="nebgcR1vfVfOd2gWNJgg-2" target="nebgcR1vfVfOd2gWNJgg-4">
          <mxGeometry relative="1" as="geometry" />
        </mxCell>
        <mxCell id="nebgcR1vfVfOd2gWNJgg-2" value="&lt;span style=&quot;color: rgb(152, 195, 121); font-family: &amp;quot;Fira Code&amp;quot;, &amp;quot;Fira Mono&amp;quot;, Menlo, Consolas, &amp;quot;DejaVu Sans Mono&amp;quot;, monospace; font-size: 14px; letter-spacing: -0.4px; text-align: left; white-space: pre; background-color: rgb(40, 44, 52);&quot;&gt;Network Traffic&lt;/span&gt;" style="rounded=0;whiteSpace=wrap;html=1;" vertex="1" parent="nebgcR1vfVfOd2gWNJgg-1">
          <mxGeometry x="92.19" y="30" width="141.62" height="39" as="geometry" />
        </mxCell>
        <mxCell id="nebgcR1vfVfOd2gWNJgg-40" style="edgeStyle=none;curved=1;rounded=0;orthogonalLoop=1;jettySize=auto;html=1;fontSize=12;startSize=8;endSize=8;" edge="1" parent="nebgcR1vfVfOd2gWNJgg-1" source="nebgcR1vfVfOd2gWNJgg-4" target="nebgcR1vfVfOd2gWNJgg-5">
          <mxGeometry relative="1" as="geometry" />
        </mxCell>
        <mxCell id="nebgcR1vfVfOd2gWNJgg-4" value="&lt;span style=&quot;color: rgb(152, 195, 121); font-family: &amp;quot;Fira Code&amp;quot;, &amp;quot;Fira Mono&amp;quot;, Menlo, Consolas, &amp;quot;DejaVu Sans Mono&amp;quot;, monospace; font-size: 14px; letter-spacing: -0.4px; text-align: left; white-space: pre; background-color: rgb(40, 44, 52);&quot;&gt;Packet Capture&lt;/span&gt;" style="rounded=0;whiteSpace=wrap;html=1;" vertex="1" parent="nebgcR1vfVfOd2gWNJgg-1">
          <mxGeometry x="97.8" y="113" width="130.4" height="39" as="geometry" />
        </mxCell>
        <mxCell id="nebgcR1vfVfOd2gWNJgg-5" value="&lt;span style=&quot;color: rgb(152, 195, 121); font-family: &amp;quot;Fira Code&amp;quot;, &amp;quot;Fira Mono&amp;quot;, Menlo, Consolas, &amp;quot;DejaVu Sans Mono&amp;quot;, monospace; font-size: 14px; letter-spacing: -0.4px; text-align: left; white-space: pre; background-color: rgb(40, 44, 52);&quot;&gt;Feature Extraction&lt;/span&gt;" style="rounded=0;whiteSpace=wrap;html=1;" vertex="1" parent="nebgcR1vfVfOd2gWNJgg-1">
          <mxGeometry x="68.59" y="201" width="188.81" height="39" as="geometry" />
        </mxCell>
        <mxCell id="nebgcR1vfVfOd2gWNJgg-6" value="Processing" style="swimlane;" vertex="1" parent="1">
          <mxGeometry x="-60" y="244" width="398" height="397" as="geometry" />
        </mxCell>
        <mxCell id="nebgcR1vfVfOd2gWNJgg-42" style="edgeStyle=none;curved=1;rounded=0;orthogonalLoop=1;jettySize=auto;html=1;fontSize=12;startSize=8;endSize=8;" edge="1" parent="nebgcR1vfVfOd2gWNJgg-6" source="nebgcR1vfVfOd2gWNJgg-7" target="nebgcR1vfVfOd2gWNJgg-10">
          <mxGeometry relative="1" as="geometry" />
        </mxCell>
        <mxCell id="nebgcR1vfVfOd2gWNJgg-7" value="&lt;span style=&quot;color: rgb(152, 195, 121); font-family: &amp;quot;Fira Code&amp;quot;, &amp;quot;Fira Mono&amp;quot;, Menlo, Consolas, &amp;quot;DejaVu Sans Mono&amp;quot;, monospace; font-size: 14px; letter-spacing: -0.4px; text-align: left; white-space: pre; background-color: rgb(40, 44, 52);&quot;&gt;Data Preprocessing&lt;/span&gt;" style="rounded=0;whiteSpace=wrap;html=1;" vertex="1" parent="nebgcR1vfVfOd2gWNJgg-6">
          <mxGeometry x="59.050000000000004" y="32" width="279.91" height="39" as="geometry" />
        </mxCell>
        <mxCell id="nebgcR1vfVfOd2gWNJgg-43" style="edgeStyle=none;curved=1;rounded=0;orthogonalLoop=1;jettySize=auto;html=1;fontSize=12;startSize=8;endSize=8;" edge="1" parent="nebgcR1vfVfOd2gWNJgg-6" source="nebgcR1vfVfOd2gWNJgg-10" target="nebgcR1vfVfOd2gWNJgg-11">
          <mxGeometry relative="1" as="geometry" />
        </mxCell>
        <mxCell id="nebgcR1vfVfOd2gWNJgg-10" value="&lt;span style=&quot;color: rgb(152, 195, 121); font-family: &amp;quot;Fira Code&amp;quot;, &amp;quot;Fira Mono&amp;quot;, Menlo, Consolas, &amp;quot;DejaVu Sans Mono&amp;quot;, monospace; font-size: 14px; letter-spacing: -0.4px; text-align: left; white-space: pre; background-color: rgb(40, 44, 52);&quot;&gt;Feature Engineering&lt;/span&gt;" style="rounded=0;whiteSpace=wrap;html=1;" vertex="1" parent="nebgcR1vfVfOd2gWNJgg-6">
          <mxGeometry x="59.050000000000004" y="164" width="279.91" height="39" as="geometry" />
        </mxCell>
        <mxCell id="nebgcR1vfVfOd2gWNJgg-11" value="&lt;span style=&quot;color: rgb(152, 195, 121); font-family: &amp;quot;Fira Code&amp;quot;, &amp;quot;Fira Mono&amp;quot;, Menlo, Consolas, &amp;quot;DejaVu Sans Mono&amp;quot;, monospace; font-size: 14px; letter-spacing: -0.4px; text-align: left; white-space: pre; background-color: rgb(40, 44, 52);&quot;&gt;Real-time Analytics&lt;/span&gt;" style="rounded=0;whiteSpace=wrap;html=1;" vertex="1" parent="nebgcR1vfVfOd2gWNJgg-6">
          <mxGeometry x="59.050000000000004" y="296" width="279.91" height="39" as="geometry" />
        </mxCell>
        <mxCell id="nebgcR1vfVfOd2gWNJgg-12" value="Storage" style="swimlane;" vertex="1" parent="1">
          <mxGeometry x="-524" y="646" width="398" height="200" as="geometry" />
        </mxCell>
        <mxCell id="nebgcR1vfVfOd2gWNJgg-20" value="&lt;span style=&quot;color: rgb(152, 195, 121); font-family: &amp;quot;Fira Code&amp;quot;, &amp;quot;Fira Mono&amp;quot;, Menlo, Consolas, &amp;quot;DejaVu Sans Mono&amp;quot;, monospace; font-size: 14px; letter-spacing: -0.4px; text-align: left; white-space: pre; background-color: rgb(40, 44, 52);&quot;&gt;Time Series DB&lt;/span&gt;" style="strokeWidth=2;html=1;shape=mxgraph.flowchart.database;whiteSpace=wrap;" vertex="1" parent="nebgcR1vfVfOd2gWNJgg-12">
          <mxGeometry x="26" y="60.5" width="136" height="79" as="geometry" />
        </mxCell>
        <mxCell id="nebgcR1vfVfOd2gWNJgg-21" value="&lt;span style=&quot;color: rgb(152, 195, 121); font-family: &amp;quot;Fira Code&amp;quot;, &amp;quot;Fira Mono&amp;quot;, Menlo, Consolas, &amp;quot;DejaVu Sans Mono&amp;quot;, monospace; font-size: 14px; letter-spacing: -0.4px; text-align: left; white-space: pre; background-color: rgb(40, 44, 52);&quot;&gt;Model Storage&lt;/span&gt;" style="strokeWidth=2;html=1;shape=mxgraph.flowchart.database;whiteSpace=wrap;" vertex="1" parent="nebgcR1vfVfOd2gWNJgg-12">
          <mxGeometry x="240" y="60.5" width="136" height="79" as="geometry" />
        </mxCell>
        <mxCell id="nebgcR1vfVfOd2gWNJgg-16" value="Data Collection" style="swimlane;" vertex="1" parent="1">
          <mxGeometry x="392" y="626" width="255.91000000000003" height="354" as="geometry" />
        </mxCell>
        <mxCell id="nebgcR1vfVfOd2gWNJgg-48" value="" style="edgeStyle=none;curved=1;rounded=0;orthogonalLoop=1;jettySize=auto;html=1;fontSize=12;startSize=8;endSize=8;" edge="1" parent="nebgcR1vfVfOd2gWNJgg-16" source="nebgcR1vfVfOd2gWNJgg-22" target="nebgcR1vfVfOd2gWNJgg-23">
          <mxGeometry relative="1" as="geometry" />
        </mxCell>
        <mxCell id="nebgcR1vfVfOd2gWNJgg-22" value="&lt;span style=&quot;color: rgb(152, 195, 121); font-family: &amp;quot;Fira Code&amp;quot;, &amp;quot;Fira Mono&amp;quot;, Menlo, Consolas, &amp;quot;DejaVu Sans Mono&amp;quot;, monospace; font-size: 14px; letter-spacing: -0.4px; text-align: left; white-space: pre; background-color: rgb(40, 44, 52);&quot;&gt;LSTM/RNN Model&lt;/span&gt;" style="rounded=0;whiteSpace=wrap;html=1;" vertex="1" parent="nebgcR1vfVfOd2gWNJgg-16">
          <mxGeometry x="20" y="45" width="215.91" height="39" as="geometry" />
        </mxCell>
        <mxCell id="nebgcR1vfVfOd2gWNJgg-49" value="" style="edgeStyle=none;curved=1;rounded=0;orthogonalLoop=1;jettySize=auto;html=1;fontSize=12;startSize=8;endSize=8;" edge="1" parent="nebgcR1vfVfOd2gWNJgg-16" source="nebgcR1vfVfOd2gWNJgg-23" target="nebgcR1vfVfOd2gWNJgg-24">
          <mxGeometry relative="1" as="geometry" />
        </mxCell>
        <mxCell id="nebgcR1vfVfOd2gWNJgg-23" value="&lt;span style=&quot;color: rgb(152, 195, 121); font-family: &amp;quot;Fira Code&amp;quot;, &amp;quot;Fira Mono&amp;quot;, Menlo, Consolas, &amp;quot;DejaVu Sans Mono&amp;quot;, monospace; font-size: 14px; letter-spacing: -0.4px; text-align: left; white-space: pre; background-color: rgb(40, 44, 52);&quot;&gt;Anomaly Detection&lt;/span&gt;" style="rounded=0;whiteSpace=wrap;html=1;" vertex="1" parent="nebgcR1vfVfOd2gWNJgg-16">
          <mxGeometry x="20" y="157.5" width="215.91" height="39" as="geometry" />
        </mxCell>
        <mxCell id="nebgcR1vfVfOd2gWNJgg-24" value="&lt;span style=&quot;color: rgb(152, 195, 121); font-family: &amp;quot;Fira Code&amp;quot;, &amp;quot;Fira Mono&amp;quot;, Menlo, Consolas, &amp;quot;DejaVu Sans Mono&amp;quot;, monospace; font-size: 14px; letter-spacing: -0.4px; text-align: left; white-space: pre; background-color: rgb(40, 44, 52);&quot;&gt;Alert Generation&lt;/span&gt;" style="rounded=0;whiteSpace=wrap;html=1;" vertex="1" parent="nebgcR1vfVfOd2gWNJgg-16">
          <mxGeometry x="20" y="270" width="215.91" height="39" as="geometry" />
        </mxCell>
        <mxCell id="nebgcR1vfVfOd2gWNJgg-28" value="Frontend" style="swimlane;startSize=23;" vertex="1" parent="1">
          <mxGeometry x="131" y="1073" width="623.04" height="200" as="geometry" />
        </mxCell>
        <mxCell id="nebgcR1vfVfOd2gWNJgg-51" style="edgeStyle=none;curved=1;rounded=0;orthogonalLoop=1;jettySize=auto;html=1;entryX=0.5;entryY=0;entryDx=0;entryDy=0;fontSize=12;startSize=8;endSize=8;" edge="1" parent="nebgcR1vfVfOd2gWNJgg-28" source="nebgcR1vfVfOd2gWNJgg-29" target="nebgcR1vfVfOd2gWNJgg-31">
          <mxGeometry relative="1" as="geometry" />
        </mxCell>
        <mxCell id="nebgcR1vfVfOd2gWNJgg-52" style="edgeStyle=none;curved=1;rounded=0;orthogonalLoop=1;jettySize=auto;html=1;entryX=0.5;entryY=0;entryDx=0;entryDy=0;fontSize=12;startSize=8;endSize=8;" edge="1" parent="nebgcR1vfVfOd2gWNJgg-28" source="nebgcR1vfVfOd2gWNJgg-29" target="nebgcR1vfVfOd2gWNJgg-30">
          <mxGeometry relative="1" as="geometry" />
        </mxCell>
        <mxCell id="nebgcR1vfVfOd2gWNJgg-29" value="&lt;span style=&quot;color: rgb(152, 195, 121); font-family: &amp;quot;Fira Code&amp;quot;, &amp;quot;Fira Mono&amp;quot;, Menlo, Consolas, &amp;quot;DejaVu Sans Mono&amp;quot;, monospace; font-size: 14px; letter-spacing: -0.4px; text-align: left; white-space: pre; background-color: rgb(40, 44, 52);&quot;&gt;Dashboard&lt;/span&gt;" style="rounded=0;whiteSpace=wrap;html=1;" vertex="1" parent="nebgcR1vfVfOd2gWNJgg-28">
          <mxGeometry x="171.57" y="35" width="279.91" height="39" as="geometry" />
        </mxCell>
        <mxCell id="nebgcR1vfVfOd2gWNJgg-30" value="&lt;span style=&quot;color: rgb(152, 195, 121); font-family: &amp;quot;Fira Code&amp;quot;, &amp;quot;Fira Mono&amp;quot;, Menlo, Consolas, &amp;quot;DejaVu Sans Mono&amp;quot;, monospace; font-size: 14px; letter-spacing: -0.4px; text-align: left; white-space: pre; background-color: rgb(40, 44, 52);&quot;&gt;System Configuration&lt;/span&gt;" style="rounded=0;whiteSpace=wrap;html=1;" vertex="1" parent="nebgcR1vfVfOd2gWNJgg-28">
          <mxGeometry x="376" y="142" width="211.91" height="39" as="geometry" />
        </mxCell>
        <mxCell id="nebgcR1vfVfOd2gWNJgg-31" value="&lt;span style=&quot;color: rgb(152, 195, 121); font-family: &amp;quot;Fira Code&amp;quot;, &amp;quot;Fira Mono&amp;quot;, Menlo, Consolas, &amp;quot;DejaVu Sans Mono&amp;quot;, monospace; font-size: 14px; letter-spacing: -0.4px; text-align: left; white-space: pre; background-color: rgb(40, 44, 52);&quot;&gt;Alert Management&lt;/span&gt;" style="rounded=0;whiteSpace=wrap;html=1;" vertex="1" parent="nebgcR1vfVfOd2gWNJgg-28">
          <mxGeometry x="59.05" y="144" width="227.95" height="39" as="geometry" />
        </mxCell>
        <mxCell id="nebgcR1vfVfOd2gWNJgg-41" style="edgeStyle=none;curved=1;rounded=0;orthogonalLoop=1;jettySize=auto;html=1;fontSize=12;startSize=8;endSize=8;" edge="1" parent="1" source="nebgcR1vfVfOd2gWNJgg-5" target="nebgcR1vfVfOd2gWNJgg-7">
          <mxGeometry relative="1" as="geometry" />
        </mxCell>
        <mxCell id="nebgcR1vfVfOd2gWNJgg-44" style="edgeStyle=none;curved=1;rounded=0;orthogonalLoop=1;jettySize=auto;html=1;entryX=0.5;entryY=0;entryDx=0;entryDy=0;entryPerimeter=0;fontSize=12;startSize=8;endSize=8;" edge="1" parent="1" source="nebgcR1vfVfOd2gWNJgg-11" target="nebgcR1vfVfOd2gWNJgg-20">
          <mxGeometry relative="1" as="geometry">
            <Array as="points">
              <mxPoint x="-351" y="540" />
            </Array>
          </mxGeometry>
        </mxCell>
        <mxCell id="nebgcR1vfVfOd2gWNJgg-45" style="edgeStyle=none;curved=1;rounded=0;orthogonalLoop=1;jettySize=auto;html=1;entryX=0.5;entryY=0;entryDx=0;entryDy=0;fontSize=12;startSize=8;endSize=8;" edge="1" parent="1" source="nebgcR1vfVfOd2gWNJgg-11" target="nebgcR1vfVfOd2gWNJgg-22">
          <mxGeometry relative="1" as="geometry">
            <Array as="points">
              <mxPoint x="715" y="535" />
            </Array>
          </mxGeometry>
        </mxCell>
        <mxCell id="nebgcR1vfVfOd2gWNJgg-47" style="edgeStyle=none;curved=1;rounded=0;orthogonalLoop=1;jettySize=auto;html=1;entryX=1;entryY=0.15;entryDx=0;entryDy=0;entryPerimeter=0;fontSize=12;startSize=8;endSize=8;" edge="1" parent="1" source="nebgcR1vfVfOd2gWNJgg-22" target="nebgcR1vfVfOd2gWNJgg-21">
          <mxGeometry relative="1" as="geometry">
            <Array as="points">
              <mxPoint x="312" y="773" />
            </Array>
          </mxGeometry>
        </mxCell>
        <mxCell id="nebgcR1vfVfOd2gWNJgg-50" style="edgeStyle=none;curved=1;rounded=0;orthogonalLoop=1;jettySize=auto;html=1;fontSize=12;startSize=8;endSize=8;" edge="1" parent="1" source="nebgcR1vfVfOd2gWNJgg-24" target="nebgcR1vfVfOd2gWNJgg-29">
          <mxGeometry relative="1" as="geometry" />
        </mxCell>
      </root>
    </mxGraphModel>
  </diagram>
</mxfile>
